<svg xmlns="http://www.w3.org/2000/svg" xmlns:xlink="http://www.w3.org/1999/xlink" width="200" zoomAndPan="magnify" viewBox="0 0 150 37.5" height="50" preserveAspectRatio="xMidYMid meet" version="1.0"><defs><g/><clipPath id="62f0f7f4d7"><path d="M 0.988281 16 L 144 16 L 144 19 L 0.988281 19 Z M 0.988281 16 " clip-rule="nonzero"/></clipPath><clipPath id="8fe6c95284"><path d="M 6 13 L 149.011719 13 L 149.011719 15 L 6 15 Z M 6 13 " clip-rule="nonzero"/></clipPath></defs><g fill="#ff9a00" fill-opacity="1"><g transform="translate(3.69172, 29.131544)"><g><path d="M 0.890625 2.265625 L 9.015625 -14.453125 L 14.28125 -14.453125 L 17.8125 -21.296875 L 1.203125 -21.296875 L 1.203125 -23.65625 L 27.5625 -23.65625 L 27.5625 -21.671875 L 22.640625 -12.21875 L 17.609375 -12.21875 L 10.828125 2.265625 Z M 0.890625 2.265625 "/></g></g></g><g fill="#ff9a00" fill-opacity="1"><g transform="translate(32.141152, 29.131544)"><g><path d="M 1.03125 -21.125 L 1.03125 -23.65625 L 14.5 -23.65625 L 14.5 -21.125 Z M 12.609375 2.296875 L 1.09375 2.296875 L 1.09375 -0.265625 L 3.125 -0.28125 L 26.921875 -22.703125 L 26.890625 -10.890625 Z M 12.609375 2.296875 "/></g></g></g><g fill="#ff9a00" fill-opacity="1"><g transform="translate(60.015864, 29.131544)"><g><path d="M 6.578125 3.015625 L 3.796875 1.5 L 14 -2.953125 L 16.03125 -18.765625 L 10.859375 -18.765625 L 9.140625 -8.453125 L 0.375 -8.453125 L 3.21875 -23.9375 L 11.6875 -23.9375 L 11.234375 -21.0625 L 27.75 -21.0625 L 27.75 -18.765625 L 25.0625 -18.765625 L 23.453125 -4.34375 Z M 6.578125 3.015625 "/></g></g></g><g fill="#ff9a00" fill-opacity="1"><g transform="translate(88.465296, 29.131544)"><g><path d="M 10.953125 -12.15625 L 10.953125 2.265625 L 1.875 2.296875 L 1.875 -23.9375 L 10.953125 -23.9375 L 10.953125 -14.734375 L 27.421875 -10.515625 L 26.609375 -7.8125 Z M 10.953125 -12.15625 "/></g></g></g><g fill="#ff9a00" fill-opacity="1"><g transform="translate(116.340007, 29.131544)"><g><path d="M 15.078125 2.875 L 15.109375 -23.9375 L 23.84375 -23.9375 L 23.84375 -4.6875 L 27.90625 -6.875 L 27.90625 -4.015625 Z M 2.5 2.875 L 0.40625 1.34375 L 4.390625 -1.75 L 4.375 -23.9375 L 12.765625 -23.9375 L 12.765625 -5.0625 Z M 2.5 2.875 "/></g></g></g><g clip-path="url(#62f0f7f4d7)"><path stroke-linecap="butt" transform="matrix(0.740132, 0.00000000000000011, -0.00000000000000011, 0.740132, 0.986842, 16.793029)" fill="none" stroke-linejoin="miter" d="M 0.00194444 0.997418 L 191.115564 0.997418 " stroke="#ffffff" stroke-width="2" stroke-opacity="1" stroke-miterlimit="4"/></g><g clip-path="url(#8fe6c95284)"><path stroke-linecap="butt" transform="matrix(0.740132, 0, 0, 0.740132, 7.563666, 13.093564)" fill="none" stroke-linejoin="miter" d="M -0.00157567 0.997751 L 191.112043 0.997751 " stroke="#ffffff" stroke-width="2" stroke-opacity="1" stroke-miterlimit="4"/></g></svg>